<?xml version="1.0" standalone="no"?>
<!DOCTYPE svg PUBLIC "-//W3C//DTD SVG 20010904//EN"
 "http://www.w3.org/TR/2001/REC-SVG-20010904/DTD/svg10.dtd">
<svg version="1.0" xmlns="http://www.w3.org/2000/svg"
 width="500.000000pt" height="500.000000pt" viewBox="0 0 500.000000 500.000000"
 preserveAspectRatio="xMidYMid meet">
<metadata>
Created by potrace 1.14, written by Peter Selinger 2001-2017
</metadata>
<g transform="translate(0.000000,500.000000) scale(0.100000,-0.100000)"
fill="#000000" stroke="none">
<path d="M0 3750 l0 -1250 1250 0 1250 0 0 -1250 0 -1250 1250 0 1250 0 0
1250 0 1250 -1250 0 -1250 0 0 1250 0 1250 -1250 0 -1250 0 0 -1250z m1633
1066 c98 -18 249 -64 330 -102 l55 -25 -60 -152 c-33 -83 -71 -183 -85 -220
-30 -80 -20 -78 -156 -22 -143 58 -198 69 -337 70 -121 0 -127 -1 -191 -32
-83 -41 -140 -102 -185 -196 -59 -127 -69 -180 -69 -392 0 -209 12 -279 65
-385 45 -87 92 -135 177 -177 75 -37 80 -38 203 -41 147 -4 226 11 420 81 81
30 123 41 126 33 2 -6 3 -114 2 -240 l-3 -228 -50 -20 c-181 -72 -485 -112
-684 -90 -154 17 -251 44 -366 102 -299 149 -463 449 -482 884 -17 391 92 708
315 917 139 131 307 211 507 244 111 18 342 13 468 -9z m2437 -2491 c52 -9
129 -25 170 -36 96 -27 260 -89 260 -99 0 -13 -161 -414 -169 -423 -4 -4 -48
8 -97 28 -150 61 -273 88 -399 89 -126 1 -174 -15 -206 -68 -31 -51 -25 -99
19 -148 30 -33 82 -63 281 -160 270 -132 364 -190 435 -269 53 -59 109 -169
125 -247 18 -88 14 -238 -10 -322 -64 -234 -256 -401 -537 -467 -109 -25 -467
-25 -595 0 -86 17 -235 65 -289 93 l-28 15 0 250 c0 197 3 250 13 246 6 -3 57
-24 112 -47 257 -109 568 -149 691 -90 114 56 113 185 -3 263 -24 15 -118 63
-211 106 -193 89 -292 145 -374 209 -153 119 -227 299 -214 519 17 293 200
481 536 553 110 24 356 26 490 5z"/>
</g>
</svg>
